<svg width="24" height="24" viewBox="0 0 24 24" fill="none" xmlns="http://www.w3.org/2000/svg">
<circle cx="12" cy="12" r="12" fill="#EEEEEE"/>
<path d="M9.45176 12.2884C9.45176 12.4264 9.34137 12.5368 9.20339 12.5368H8.27126C8.13328 12.5368 8.02289 12.4264 8.02289 12.2884V11.3563C8.02289 11.2183 8.13328 11.1079 8.27126 11.1079H9.20339C9.34137 11.1079 9.45176 11.2183 9.45176 11.3563V12.2884ZM11.3988 11.3594C11.3988 11.2214 11.2884 11.111 11.1504 11.111H10.2183C10.0803 11.111 9.96995 11.2214 9.96995 11.3594V12.2915C9.96995 12.4295 10.0803 12.5399 10.2183 12.5399H11.1504C11.2884 12.5399 11.3988 12.4295 11.3988 12.2915V11.3594ZM13.3459 11.3594C13.3459 11.2214 13.2355 11.111 13.0975 11.111H12.1654C12.0274 11.111 11.917 11.2214 11.917 11.3594V12.2915C11.917 12.4295 12.0274 12.5399 12.1654 12.5399H13.0975C13.2355 12.5399 13.3459 12.4295 13.3459 12.2915V11.3594ZM9.45176 13.2543C9.45176 13.1163 9.34137 13.0059 9.20339 13.0059H8.27126C8.13328 13.0059 8.02289 13.1163 8.02289 13.2543V14.1864C8.02289 14.3244 8.13328 14.4348 8.27126 14.4348H9.20339C9.34137 14.4348 9.45176 14.3244 9.45176 14.1864V13.2543ZM11.3988 13.2543C11.3988 13.1163 11.2884 13.0059 11.1504 13.0059H10.2183C10.0803 13.0059 9.96995 13.1163 9.96995 13.2543V14.1864C9.96995 14.3244 10.0803 14.4348 10.2183 14.4348H11.1504C11.2884 14.4348 11.3988 14.3244 11.3988 14.1864V13.2543ZM13.0975 13.0059H12.1654C12.0274 13.0059 11.917 13.1163 11.917 13.2543V14.1864C11.917 14.3244 12.0274 14.4348 12.1654 14.4348H13.0975C13.2355 14.4348 13.3459 14.3244 13.3459 14.1864V13.2543C13.3459 13.1163 13.2355 13.0059 13.0975 13.0059ZM7.25327 14.9009H6.3242C6.18622 14.9009 6.07584 15.0112 6.07584 15.1492V16.0814C6.07584 16.2193 6.18622 16.3297 6.3242 16.3297H7.25634C7.39432 16.3297 7.5047 16.2193 7.5047 16.0814V15.1492C7.5047 15.0112 7.39125 14.9009 7.25327 14.9009ZM7.5047 13.2543C7.5047 13.1163 7.39432 13.0059 7.25634 13.0059H6.3242C6.18622 13.0059 6.07584 13.1163 6.07584 13.2543V14.1864C6.07584 14.3244 6.18622 14.4348 6.3242 14.4348H7.25634C7.39432 14.4348 7.5047 14.3244 7.5047 14.1864V13.2543ZM11.1504 14.9009H10.2183C10.0803 14.9009 9.96995 15.0112 9.96995 15.1492V16.0814C9.96995 16.2193 10.0803 16.3297 10.2183 16.3297H11.1504C11.2884 16.3297 11.3988 16.2193 11.3988 16.0814V15.1492C11.3988 15.0112 11.2884 14.9009 11.1504 14.9009ZM9.20339 14.9009H8.27126C8.13328 14.9009 8.02289 15.0112 8.02289 15.1492V16.0814C8.02289 16.2193 8.13328 16.3297 8.27126 16.3297H9.20339C9.34137 16.3297 9.45176 16.2193 9.45176 16.0814V15.1492C9.45176 15.0112 9.34137 14.9009 9.20339 14.9009ZM15.0446 12.5399C15.1825 12.5399 15.2929 12.4295 15.2929 12.2915V11.3594C15.2929 11.2214 15.1825 11.111 15.0446 11.111H14.1124C13.9744 11.111 13.8641 11.2214 13.8641 11.3594V12.2915C13.8641 12.4295 13.9744 12.5399 14.1124 12.5399H15.0446ZM5.46259 18.3534H12.5364C12.4229 17.9978 12.3585 17.6175 12.3555 17.2251H5.46259C5.27862 17.2251 5.13144 17.0748 5.13144 16.8939V10.231H16.222V13.3309C16.6145 13.334 16.9947 13.3923 17.3504 13.5057V7.89759C17.3504 7.09117 16.6942 6.435 15.8878 6.435H14.2504V5.53352C14.2504 5.23917 14.0112 5 13.7169 5H12.8859C12.5916 5 12.3524 5.23917 12.3524 5.53352V6.43806H8.99796V5.53352C8.99796 5.23917 8.75879 5 8.46443 5H7.63348C7.33913 5 7.09996 5.23917 7.09996 5.53352V6.43806H5.46259C4.65617 6.43806 4 7.09424 4 7.90065V16.8939C4 17.6973 4.65617 18.3534 5.46259 18.3534ZM19 17.1821C19 18.7244 17.749 19.9755 16.2067 19.9755C14.6644 19.9755 13.4133 18.7244 13.4133 17.1821C13.4133 15.6398 14.6644 14.3888 16.2067 14.3888C17.749 14.3888 19 15.6398 19 17.1821ZM17.6171 16.4585C17.6171 16.3696 17.5834 16.2837 17.519 16.2224C17.3872 16.0906 17.1756 16.0906 17.0437 16.2224L15.8295 17.4366L15.3635 16.9706C15.2316 16.8387 15.02 16.8387 14.8882 16.9706C14.8238 17.035 14.7901 17.1177 14.7901 17.2067C14.7901 17.2956 14.8238 17.3814 14.8882 17.4428L15.5904 18.1449C15.7222 18.2768 15.9338 18.2768 16.0656 18.1449L17.5159 16.6946C17.5834 16.6333 17.6171 16.5474 17.6171 16.4585Z" fill="black"/>
</svg>
