<svg enable-background="new 0 0 314.014 314.015" height="314.015" viewBox="0 0 314.014 314.015" width="314.014" xmlns="http://www.w3.org/2000/svg"><path d="m282.612 222.557v-49.849c0-17.342-14.058-31.402-31.398-31.402h-78.505v-49.842c18.286-6.474 31.402-23.866 31.402-44.368 0-26.008-21.1-47.096-47.104-47.096-26.008 0-47.102 21.087-47.102 47.096 0 20.502 13.117 37.894 31.4 44.368v49.842h-78.502c-17.34 0-31.4 14.06-31.4 31.402v49.849c-18.286 6.46-31.403 23.856-31.403 44.354 0 26.004 21.093 47.104 47.101 47.104s47.103-21.1 47.103-47.104c0-20.498-13.118-37.895-31.402-44.354v-49.849h78.503v49.849c-18.284 6.46-31.4 23.856-31.4 44.354 0 26.004 21.093 47.104 47.102 47.104 26.004 0 47.104-21.1 47.104-47.104 0-20.498-13.116-37.895-31.402-44.354v-49.849h78.505v49.849c-18.285 6.46-31.401 23.856-31.401 44.354 0 26.004 21.095 47.104 47.099 47.104 26.009 0 47.104-21.1 47.104-47.104-.002-20.498-13.118-37.894-31.404-44.354zm-235.51 60.055c-8.666 0-15.699-7.037-15.699-15.701 0-8.677 7.033-15.697 15.699-15.697 8.668 0 15.701 7.021 15.701 15.697 0 8.664-7.033 15.701-15.701 15.701zm109.905 0c-8.666 0-15.701-7.037-15.701-15.701 0-8.677 7.035-15.697 15.701-15.697 8.664 0 15.701 7.021 15.701 15.697 0 8.664-7.037 15.701-15.701 15.701zm0-219.809c-8.666 0-15.701-7.033-15.701-15.707 0-8.676 7.035-15.693 15.701-15.693 8.664 0 15.701 7.025 15.701 15.693 0 8.666-7.037 15.707-15.701 15.707zm109.904 219.809c-8.66 0-15.697-7.037-15.697-15.701 0-8.677 7.037-15.697 15.697-15.697 8.664 0 15.701 7.021 15.701 15.697 0 8.664-7.037 15.701-15.701 15.701z"/></svg>