<svg width="98" height="22" viewBox="0 0 98 22" fill="none" xmlns="http://www.w3.org/2000/svg">
  <g clip-path="url(#clip0)">
    <path
      d="M0.0410156 8.65034C0.0689697 8.3419 0.0917375 8.03289 0.125794 7.72514C0.262435 6.49053 0.582066 5.30306 1.12248 4.18663C1.64346 3.11037 2.54781 2.45196 3.62434 1.99207C4.51427 1.6119 5.44334 1.41665 6.40165 1.38461C7.76865 1.3389 9.13691 1.31062 10.5046 1.31287C11.3452 1.31426 12.1934 1.31445 13.0153 1.54264C14.1394 1.85476 15.0781 2.46284 15.8365 3.35021C16.3422 3.94183 16.5458 4.66761 16.7564 5.39568C17.1748 6.84183 17.2778 8.32057 17.2673 9.81545C17.262 10.5634 17.2907 11.3117 17.2819 12.0596C17.2673 13.3061 17.2481 14.5529 17.2051 15.7987C17.1789 16.5554 17.0418 17.2982 16.7761 18.0122C16.7551 18.0688 16.7419 18.1283 16.7159 18.2183C16.852 18.2183 16.9666 18.2183 17.0812 18.2183C17.6758 18.2184 18.2704 18.2172 18.865 18.219C19.1011 18.2197 19.1696 18.2776 19.1706 18.509C19.1748 19.5277 19.1749 20.5464 19.1711 21.5651C19.1702 21.8132 19.1006 21.8714 18.8351 21.8718C17.722 21.8732 16.6088 21.8725 15.4957 21.8725C13.546 21.8725 11.5963 21.8721 9.64655 21.8727C8.53454 21.873 7.42272 21.8809 6.31901 21.7049C4.60669 21.432 3.03345 20.8602 1.744 19.6409C0.915319 18.8572 0.438596 17.8873 0.264614 16.7806C0.148994 16.0451 0.136322 15.2934 0.0760576 14.5492C0.0694365 14.4678 0.0529268 14.3872 0.0410156 14.3063C0.0410156 12.421 0.0410156 10.5357 0.0410156 8.65034ZM13.2831 11.6151C13.2863 11.6151 13.2895 11.6151 13.2927 11.6151C13.2927 10.8668 13.2994 10.1183 13.2906 9.37004C13.2833 8.74723 13.2868 8.12207 13.2324 7.50266C13.1752 6.85115 12.9894 6.23541 12.4556 5.79005C12.0591 5.45917 11.5853 5.30848 11.0888 5.23891C9.48368 5.01405 7.87336 5.02482 6.27918 5.29482C5.15889 5.48457 4.41718 6.16772 4.16911 7.31063C4.10063 7.62614 4.06436 7.95493 4.06303 8.27784C4.05402 10.4744 4.05482 12.671 4.06222 14.8676C4.06329 15.1842 4.09352 15.5049 4.14992 15.8164C4.38389 17.109 5.24796 17.9686 6.50484 18.1176C7.12053 18.1906 7.74633 18.2115 8.36678 18.2025C9.24978 18.1898 10.1363 18.1681 11.0135 18.0762C11.987 17.9743 12.7542 17.5127 13.0582 16.5154C13.18 16.1158 13.2636 15.6895 13.2731 15.2732C13.3011 14.0545 13.2831 12.8346 13.2831 11.6151Z"
      fill="#FFFFFD" />
    <path
      d="M69.4546 22.0416C69.2572 22.0267 69.0599 21.9998 68.8625 21.9987C67.3411 21.9896 66.0104 21.5002 64.8757 20.4675C64.1357 19.794 63.7687 18.937 63.522 17.9946C63.2118 16.8101 63.0088 15.6167 63.0148 14.387C63.0231 12.6688 63.0059 10.9506 63.0001 9.23238C62.9953 7.81712 63.2291 6.44138 63.5926 5.07367C63.977 3.62705 64.8854 2.66266 66.1553 1.97338C66.9916 1.51946 67.8987 1.35958 68.8324 1.34455C70.3734 1.31979 71.9152 1.296 73.4559 1.31871C74.3163 1.3314 75.1954 1.34483 76.0305 1.52407C77.5005 1.83957 78.6789 2.65644 79.4383 3.99011C79.8084 4.63991 79.9275 5.38263 80.1102 6.09954C80.3581 7.07261 80.4401 8.06412 80.4405 9.06379C80.4414 10.9903 80.4446 12.9168 80.4285 14.8432C80.4174 16.1854 80.108 17.4783 79.7 18.7476C79.3136 19.9494 78.4366 20.7201 77.3811 21.3212C76.5617 21.7879 75.6657 21.9579 74.7358 21.9936C74.4827 22.0034 74.23 22.0252 73.977 22.0415C72.4696 22.0416 70.9621 22.0416 69.4546 22.0416ZM76.4742 11.678C76.4779 11.678 76.4815 11.678 76.4851 11.678C76.4851 10.5759 76.4934 9.47379 76.4807 8.37189C76.4762 7.98569 76.443 7.5965 76.3833 7.21495C76.2395 6.29792 75.7649 5.63724 74.8448 5.36886C74.5611 5.2861 74.2656 5.20854 73.973 5.19788C72.8068 5.15539 71.6395 5.12162 70.4727 5.12366C69.9717 5.12455 69.4654 5.19015 68.9712 5.28012C67.8635 5.48179 67.289 6.06305 67.0825 7.17414C67.0108 7.56011 66.9678 7.95722 66.9659 8.3495C66.9554 10.5605 66.9548 12.7716 66.9675 14.9826C66.97 15.4023 67.021 15.8265 67.0963 16.2401C67.2495 17.0818 67.7103 17.6866 68.5493 17.9442C68.8382 18.0329 69.1393 18.1153 69.4384 18.1307C70.4247 18.1816 71.4124 18.217 72.3999 18.2264C73.1664 18.2337 73.9343 18.2021 74.6849 18.0138C75.5442 17.7981 76.1182 17.2838 76.3152 16.4029C76.3934 16.0534 76.4618 15.6935 76.4671 15.3372C76.4856 14.1177 76.4742 12.8978 76.4742 11.678Z"
      fill="#FFFFFD" />
    <path
      d="M98.0414 21.4178C97.9497 21.4398 97.8581 21.4805 97.7663 21.4809C96.5772 21.4852 95.388 21.4808 94.1989 21.4868C94.0207 21.4876 93.8836 21.4301 93.7938 21.2864C93.6806 21.1056 93.5581 20.9234 93.4869 20.7248C92.929 19.1682 92.3837 17.607 91.8314 16.0484C91.7138 15.7168 91.6156 15.3725 91.4518 15.0643C91.1344 14.4672 90.6307 14.1591 89.9339 14.1691C88.9385 14.1835 87.9428 14.1724 86.9472 14.1731C86.6356 14.1734 86.5725 14.2367 86.5725 14.5526C86.5722 16.7148 86.5728 18.877 86.573 21.0391C86.5731 21.4481 86.5365 21.4839 86.1203 21.484C85.0694 21.484 84.0185 21.4843 82.9677 21.4838C82.65 21.4836 82.6025 21.4379 82.6025 21.1285C82.6039 14.7736 82.6057 8.41884 82.6078 2.06402C82.6079 1.77013 82.663 1.71603 82.9608 1.716C86.3554 1.71563 89.7501 1.71267 93.1447 1.71726C94.7628 1.71945 96.2942 2.83684 96.9147 4.44681C97.1838 5.14508 97.3216 5.87271 97.3536 6.61509C97.4041 7.78572 97.3982 8.95685 97.154 10.1113C96.8899 11.3594 96.0991 12.2132 95.0666 12.8818C95.0029 12.9231 94.9299 12.9527 94.8735 13.0018C94.7629 13.0982 94.7105 13.2231 94.8142 13.3493C95.7653 14.5066 96.1162 15.9313 96.5723 17.3083C96.9508 18.451 97.3089 19.6005 97.6949 20.7406C97.7627 20.941 97.9236 21.1097 98.0414 21.293C98.0414 21.3346 98.0414 21.3762 98.0414 21.4178ZM89.5424 5.282C88.6921 5.282 87.8418 5.2815 86.9915 5.28225C86.6322 5.28256 86.5706 5.34468 86.5706 5.70547C86.5704 7.11206 86.5708 8.51865 86.5714 9.92524C86.5716 10.296 86.6297 10.3531 87.0089 10.3532C88.585 10.3536 90.1612 10.3617 91.7371 10.3447C91.9732 10.3421 92.2245 10.2545 92.4397 10.1474C92.8049 9.9656 93.0404 9.64506 93.1977 9.27014C93.4941 8.56364 93.5487 7.82647 93.4906 7.07032C93.4465 6.49769 93.2118 6.01905 92.8291 5.60681C92.6219 5.3837 92.3626 5.27736 92.0517 5.27975C91.2153 5.28625 90.3788 5.28199 89.5424 5.282Z"
      fill="#FFFFFD" />
    <path
      d="M38.7937 0.041626C38.7937 0.587693 38.7937 1.13374 38.7937 1.71353C38.8897 1.71353 38.9764 1.71353 39.0631 1.71353C40.6185 1.7136 42.1739 1.71358 43.7293 1.71381C44.0907 1.71386 44.141 1.76231 44.1413 2.11494C44.1419 3.05037 44.1423 3.98582 44.1416 4.92126C44.1413 5.23547 44.0927 5.28506 43.7817 5.28529C42.3784 5.28631 40.9751 5.28586 39.5718 5.28621C39.1584 5.28631 39.1177 5.32655 39.1177 5.73141C39.1179 10.8105 39.1181 15.8896 39.1182 20.9687C39.1182 21.0449 39.1186 21.1211 39.1158 21.1973C39.1088 21.3901 39.0138 21.4857 38.8154 21.4854C37.6886 21.4833 36.5618 21.4857 35.435 21.4834C35.2068 21.483 35.1445 21.4142 35.1375 21.1832C35.1352 21.107 35.1367 21.0307 35.1367 20.9545C35.1371 15.917 35.1374 10.8795 35.1377 5.84198C35.1377 5.76575 35.14 5.68942 35.1366 5.61333C35.1262 5.375 35.0454 5.29106 34.8025 5.2883C34.374 5.28342 33.9453 5.28655 33.5167 5.28655C32.5005 5.28654 31.4843 5.28733 30.4681 5.28631C30.1534 5.286 30.0981 5.22922 30.0978 4.90793C30.0969 3.96557 30.0969 3.0232 30.0982 2.08084C30.0986 1.7813 30.1671 1.71336 30.4631 1.71329C31.8872 1.71287 33.3113 1.71322 34.7353 1.71329C34.8239 1.71329 34.9124 1.71329 35.018 1.71329C35.018 1.14227 35.018 0.591973 35.018 0.0416606C36.2766 0.041626 37.5351 0.041626 38.7937 0.041626Z"
      fill="#FFFFFD" />
    <path
      d="M45.8099 11.5909C45.8099 8.43077 45.8098 5.27064 45.8099 2.1105C45.81 1.7562 45.8512 1.71401 46.1986 1.71392C47.2702 1.7137 48.3419 1.71358 49.4135 1.71425C49.7111 1.71444 49.7792 1.78239 49.7793 2.07986C49.78 4.50541 49.7801 6.93095 49.7806 9.3565C49.7806 9.71677 49.84 9.77636 50.2036 9.77645C52.2777 9.77688 54.3518 9.77697 56.426 9.77665C56.7934 9.7766 56.8497 9.72049 56.8497 9.35993C56.8502 6.96211 56.8505 4.56429 56.851 2.16645C56.8511 1.75927 56.8961 1.71439 57.3015 1.71439C58.3523 1.71439 59.4033 1.71417 60.4542 1.71477C60.7743 1.71496 60.826 1.76612 60.8261 2.08951C60.8278 8.42364 60.829 14.7578 60.83 21.0919C60.83 21.4387 60.7829 21.4842 60.4335 21.4843C59.3826 21.4846 58.3317 21.4845 57.2808 21.4844C56.8949 21.4843 56.8492 21.4394 56.8492 21.0581C56.8491 18.6187 56.8494 16.1793 56.8493 13.7399C56.8493 13.3997 56.7954 13.3465 56.4496 13.3464C54.3616 13.3462 52.2736 13.3464 50.1856 13.3467C49.8395 13.3468 49.781 13.4069 49.7809 13.7605C49.7809 16.1999 49.781 18.6393 49.781 21.0787C49.781 21.4349 49.7318 21.4842 49.3737 21.4843C48.309 21.4847 47.2442 21.4848 46.1795 21.4844C45.8564 21.4843 45.8082 21.4357 45.8082 21.1129C45.8081 17.9389 45.8081 14.7649 45.8081 11.5909C45.8087 11.5909 45.8093 11.5909 45.8099 11.5909Z"
      fill="#FFFFFD" />
    <path
      d="M24.752 14.6733C23.6664 14.6733 22.5808 14.6735 21.4952 14.6731C21.1606 14.673 21.1133 14.6259 21.113 14.2868C21.1121 13.3581 21.112 12.4293 21.113 11.5006C21.1134 11.1927 21.1558 11.149 21.4607 11.1489C23.6596 11.1481 25.8585 11.1481 28.0573 11.149C28.3505 11.1491 28.4127 11.2117 28.413 11.5001C28.4138 12.4427 28.4139 13.3854 28.413 14.328C28.4128 14.6022 28.3436 14.6726 28.0711 14.6729C26.9648 14.6739 25.8584 14.6733 24.752 14.6733Z"
      fill="#FFFFFD" />
  </g>
  <defs>
    <clipPath id="clip0">
      <rect width="98" height="22" fill="white" />
    </clipPath>
  </defs>
</svg>
